 <svg width="70" height="70" viewBox="-6 -6 80 80" fill="none" xmlns="http://www.w3.org/2000/svg">
<path d="M17.4165 22.167C20.0399 22.167 22.1665 20.0404 22.1665 17.417C22.1665 14.7936 20.0399 12.667 17.4165 12.667C14.7931 12.667 12.6665 14.7936 12.6665 17.417C12.6665 20.0404 14.7931 22.167 17.4165 22.167Z" fill=" #0a66c2"/>
<path d="M12.6665 28.5002C12.6665 26.7513 14.0843 25.3335 15.8332 25.3335H18.9998C20.7487 25.3335 22.1665 26.7512 22.1665 28.5002V53.8335C22.1665 55.5824 20.7487 57.0002 18.9998 57.0002H15.8332C14.0843 57.0002 12.6665 55.5824 12.6665 53.8335V28.5002Z" fill=" #0a66c2"/>
<path d="M31.6667 57.0002H34.8333C36.5823 57.0002 38 55.5824 38 53.8335V39.5835C38 34.8335 47.5 31.6668 47.5 38.0002V53.8348C47.5 55.5837 48.9177 57.0002 50.6667 57.0002H53.8333C55.5823 57.0002 57 55.5824 57 53.8335V34.8335C57 28.5002 52.25 25.3335 45.9167 25.3335C39.5833 25.3335 38 30.0835 38 30.0835V28.5002C38 26.7512 36.5823 25.3335 34.8333 25.3335H31.6667C29.9177 25.3335 28.5 26.7513 28.5 28.5002V53.8335C28.5 55.5824 29.9177 57.0002 31.6667 57.0002Z" fill=" #0a66c2"/>
<path fill-rule="evenodd" clip-rule="evenodd" d="M60.1667 0C65.4135 0 69.6667 4.25331 69.6667 9.5V60.1667C69.6667 65.4135 65.4135 69.6667 60.1667 69.6667H9.5C4.25331 69.6667 0 65.4135 0 60.1667V9.5C0 4.25331 4.25331 0 9.5 0H60.1667ZM60.1667 6.33333C61.9156 6.33333 63.3333 7.75111 63.3333 9.5V60.1667C63.3333 61.9156 61.9156 63.3333 60.1667 63.3333H9.5C7.75111 63.3333 6.33333 61.9156 6.33333 60.1667V9.5C6.33333 7.75111 7.75111 6.33333 9.5 6.33333H60.1667Z" fill=" #0a66c2"/>
</svg>
